power_kick1_modified_grf.mot
version=1
nRows=14
nColumns=19
inDegrees=yes
endheader
time	ground_force_r_vx	ground_force_r_vy	ground_force_r_vz	ground_force_r_px	ground_force_r_py	ground_force_r_pz	ground_force_l_vx	ground_force_l_vy	ground_force_l_vz	ground_force_l_px	ground_force_l_py	ground_force_l_pz	ground_torque_r_x	ground_torque_r_y	ground_torque_r_z	ground_torque_l_x	ground_torque_l_y	ground_torque_l_z
0.36500000	  -74.12914808	  157.33050417	  -30.34718963	    0.44186523	    0.00000000	   -0.08010685	    0.70356355	    1.30377889	   -1.30082338	   -0.44084073	    0.00000000	   -0.17199125	    0.00000000	    3.74807856	    0.00000000	    0.00000000	   -0.15208818	    0.00000000	
0.36525000	  -73.32395266	  155.36034824	  -30.04047503	    0.44137282	    0.00000000	   -0.08060978	    0.70652539	    1.30763760	   -1.30478166	   -0.44080841	    0.00000000	   -0.17200161	    0.00000000	    3.76135551	    0.00000000	    0.00000000	   -0.15268080	    0.00000000	
0.36550000	  -72.51741495	  153.39617959	  -29.72913601	    0.44087150	    0.00000000	   -0.08111895	    0.70950473	    1.31155847	   -1.30877644	   -0.44077608	    0.00000000	   -0.17201126	    0.00000000	    3.77426137	    0.00000000	    0.00000000	   -0.15327982	    0.00000000	
0.36575000	  -71.70971359	  151.43831244	  -29.41332331	    0.44036127	    0.00000000	   -0.08163434	    0.71250117	    1.31554159	   -1.31280707	   -0.44074375	    0.00000000	   -0.17202020	    0.00000000	    3.78679148	    0.00000000	    0.00000000	   -0.15388511	    0.00000000	
0.36600000	  -70.90102752	  149.48705777	  -29.09318965	    0.43984209	    0.00000000	   -0.08215596	    0.71551434	    1.31958700	   -1.31687284	   -0.44071141	    0.00000000	   -0.17202845	    0.00000000	    3.79894132	    0.00000000	    0.00000000	   -0.15449656	    0.00000000	
0.36625000	  -70.09153607	  147.54272346	  -28.76888952	    0.43931397	    0.00000000	   -0.08268379	    0.71854381	    1.32369466	   -1.32097295	   -0.44067907	    0.00000000	   -0.17203601	    0.00000000	    3.81070663	    0.00000000	    0.00000000	   -0.15511403	    0.00000000	
0.36650000	  -69.28141862	  145.60561420	  -28.44057885	    0.43877688	    0.00000000	   -0.08321783	    0.72158943	    1.32786493	   -1.32510703	   -0.44064673	    0.00000000	   -0.17204288	    0.00000000	    3.82208335	    0.00000000	    0.00000000	   -0.15573743	    0.00000000	
0.36675000	  -68.47085448	  143.67603144	  -28.10841506	    0.43823083	    0.00000000	   -0.08375807	    0.72465101	    1.33209810	   -1.32927460	   -0.44061442	    0.00000000	   -0.17204907	    0.00000000	    3.83306764	    0.00000000	    0.00000000	   -0.15636667	    0.00000000	
0.36700000	  -67.66002266	  141.75427304	  -27.77255701	    0.43767581	    0.00000000	   -0.08430448	    0.72772827	    1.33639425	   -1.33347501	   -0.44058212	    0.00000000	   -0.17205459	    0.00000000	    3.84365586	    0.00000000	    0.00000000	   -0.15700161	    0.00000000	
0.36725000	  -66.84910178	  139.84063303	  -27.43316495	    0.43711184	    0.00000000	   -0.08485706	    0.73082081	    1.34075341	   -1.33770754	   -0.44054986	    0.00000000	   -0.17205942	    0.00000000	    3.85384458	    0.00000000	    0.00000000	   -0.15764214	    0.00000000	
0.36750000	  -66.03827004	  137.93540102	  -27.09040035	    0.43653891	    0.00000000	   -0.08541578	    0.73392831	    1.34517596	   -1.34197183	   -0.44051764	    0.00000000	   -0.17206358	    0.00000000	    3.86363055	    0.00000000	    0.00000000	   -0.15828820	    0.00000000	
0.36775000	  -65.22770525	  136.03886160	  -26.74442576	    0.43595705	    0.00000000	   -0.08598061	    0.73705033	    1.34966225	   -1.34626747	   -0.44048546	    0.00000000	   -0.17206709	    0.00000000	    3.87301078	    0.00000000	    0.00000000	   -0.15893974	    0.00000000	
0.36800000	  -64.41758483	  134.15129485	  -26.39540444	    0.43536628	    0.00000000	   -0.08655153	    0.74018641	    1.35421254	   -1.35059399	   -0.44045334	    0.00000000	   -0.17206995	    0.00000000	    3.88198253	    0.00000000	    0.00000000	   -0.15959668	    0.00000000	
0.36825000	  -63.60808547	  132.27297578	  -26.04350013	    0.43476662	    0.00000000	   -0.08712850	    0.74333625	    1.35882746	   -1.35495129	   -0.44042127	    0.00000000	   -0.17207217	    0.00000000	    3.89054341	    0.00000000	    0.00000000	   -0.16025902	    0.00000000	
